<?xml version="1.0" standalone="no"?>
<!DOCTYPE svg PUBLIC "-//W3C//DTD SVG 20010904//EN"
 "http://www.w3.org/TR/2001/REC-SVG-20010904/DTD/svg10.dtd">
<svg version="1.0" xmlns="http://www.w3.org/2000/svg"
 width="517.000000pt" height="517.000000pt" viewBox="0 0 517.000000 517.000000"
 preserveAspectRatio="xMidYMid meet">
<metadata>
Created by potrace 1.14, written by Peter Selinger 2001-2017
</metadata>
<g transform="translate(0.000000,517.000000) scale(0.100000,-0.100000)"
fill="#000000" stroke="none">
<path d="M2397 4874 c-2 -2 -123 -12 -236 -19 -30 -2 -77 -7 -105 -11 -28 -4
-62 -8 -76 -9 -30 -4 -129 -16 -150 -19 -8 -2 -28 -6 -45 -9 -59 -13 -100 -20
-117 -19 -10 0 -18 -3 -18 -8 0 -5 -9 -7 -20 -5 -11 2 -22 0 -25 -5 -3 -5 -12
-7 -20 -3 -8 3 -15 0 -15 -7 0 -6 -4 -8 -10 -5 -5 3 -35 -2 -67 -11 -125 -35
-258 -77 -302 -96 -102 -44 -201 -92 -201 -99 0 -4 -11 -10 -25 -13 -14 -4
-25 -11 -25 -16 0 -6 -7 -10 -15 -10 -8 0 -15 -4 -15 -10 0 -5 -4 -10 -10 -10
-31 0 -137 -115 -173 -189 l-32 -65 -3 -231 c-5 -316 8 -373 113 -481 52 -53
158 -130 213 -155 18 -8 32 -17 32 -21 0 -5 5 -8 12 -8 6 0 40 -13 75 -30 34
-16 69 -30 76 -30 8 0 17 -3 21 -7 3 -4 16 -8 29 -10 12 -2 26 -8 31 -13 6 -6
20 -10 32 -10 13 0 25 -4 29 -10 3 -5 12 -7 20 -3 8 3 15 -1 15 -8 0 -7 3 -10
6 -7 3 4 20 2 37 -3 47 -15 69 -20 96 -24 13 -2 35 -8 50 -13 14 -6 58 -16 96
-23 39 -6 79 -14 90 -16 11 -2 31 -6 45 -9 14 -2 41 -7 60 -10 19 -4 51 -8 70
-10 19 -2 58 -5 85 -9 28 -3 73 -8 100 -11 28 -3 77 -7 110 -9 33 -2 60 -4 60
-5 0 -8 478 -12 600 -6 122 7 260 16 295 21 19 2 58 6 85 9 67 8 125 15 155
20 24 5 117 21 170 30 14 2 45 9 70 16 25 7 56 14 70 16 37 5 112 24 124 32 6
4 18 7 26 8 8 0 22 3 30 6 8 3 65 23 125 43 105 36 282 121 316 151 8 8 19 14
22 14 29 0 161 142 193 206 l29 59 0 270 c0 329 -3 341 -129 466 -27 27 -52
49 -57 49 -4 0 -14 6 -21 13 -38 37 -300 171 -357 182 -9 2 -16 4 -16 5 0 1
-7 3 -15 5 -8 2 -46 13 -85 25 -93 29 -215 59 -215 52 0 -2 -6 0 -13 6 -7 6
-30 13 -52 16 -58 8 -74 11 -81 18 -3 4 -13 4 -21 1 -8 -3 -19 0 -24 8 -7 11
-9 11 -9 1 0 -7 -4 -11 -9 -8 -5 3 -26 8 -46 12 -21 3 -47 8 -59 10 -11 2 -46
7 -76 9 -30 3 -73 8 -95 11 -43 6 -69 9 -210 20 -79 6 -612 13 -618 8z"/>
<path d="M4602 3243 c-1 -7 -6 -13 -12 -13 -5 0 -32 -16 -58 -35 -95 -67 -328
-177 -457 -215 -22 -6 -47 -14 -55 -17 -8 -4 -17 -7 -20 -8 -3 -1 -20 -6 -38
-10 -18 -4 -35 -12 -38 -16 -3 -5 -9 -7 -13 -5 -4 3 -25 1 -46 -5 -62 -17
-280 -63 -350 -74 -22 -3 -53 -8 -69 -11 -16 -3 -50 -7 -75 -9 -25 -2 -46 -5
-46 -5 0 -1 -16 -3 -35 -5 -19 -2 -55 -6 -80 -9 -45 -5 -199 -15 -315 -22
-154 -8 -431 -4 -670 11 -148 9 -158 10 -170 17 -6 3 -25 5 -42 3 -18 -1 -33
1 -33 4 0 3 -19 7 -43 8 -51 3 -112 9 -112 12 0 1 -13 4 -30 6 -28 3 -174 29
-220 39 -11 2 -31 9 -45 14 -14 5 -28 10 -33 10 -27 1 -95 16 -111 24 -10 6
-29 11 -41 12 -33 4 -227 70 -300 102 -22 10 -42 18 -45 19 -15 2 -206 109
-248 139 -27 20 -52 36 -56 36 -4 0 -6 -213 -4 -472 l3 -473 34 -67 c38 -76
114 -153 216 -219 35 -22 221 -119 228 -118 1 0 13 -4 27 -9 14 -5 51 -19 83
-30 31 -12 57 -20 57 -18 0 2 23 -4 51 -14 28 -11 76 -24 107 -31 32 -6 61
-14 66 -17 6 -3 19 -7 30 -8 12 -1 57 -9 100 -18 132 -27 140 -29 176 -32 19
-1 35 -3 35 -4 0 -3 40 -9 95 -15 30 -3 78 -8 105 -11 28 -3 74 -6 102 -8 29
-1 56 -5 59 -9 4 -4 13 -2 21 4 7 6 13 8 13 3 0 -12 35 -13 350 -13 305 0 370
2 370 9 0 3 26 5 58 6 54 1 135 8 212 19 19 2 56 7 82 9 26 3 84 12 130 21 46
9 99 18 118 21 19 3 39 8 43 11 5 3 23 7 40 10 18 2 50 9 72 15 22 7 43 12 48
14 4 1 9 3 12 4 3 1 13 3 23 4 20 2 58 14 87 26 11 5 34 12 50 16 17 4 35 8
40 10 25 6 140 57 161 70 13 9 27 13 33 10 5 -3 11 -2 13 2 1 5 30 23 63 42
70 40 175 118 175 130 0 5 8 11 18 15 13 4 71 82 77 105 1 3 8 19 16 35 11 24
14 111 17 420 3 346 0 594 -6 558z"/>
<path d="M692 1438 c3 -360 5 -407 21 -437 9 -19 17 -40 17 -48 0 -7 5 -13 10
-13 6 0 10 -5 10 -11 0 -13 110 -129 122 -129 5 0 17 -8 28 -18 63 -59 275
-158 450 -211 58 -18 112 -35 120 -38 8 -3 25 -6 38 -6 12 0 22 -3 22 -6 0 -4
10 -8 23 -8 26 -2 76 -12 97 -20 8 -4 26 -7 40 -9 14 -1 36 -5 50 -8 28 -7
140 -26 185 -31 124 -17 219 -27 280 -30 33 -2 60 -4 60 -5 0 -1 45 -4 100 -7
197 -10 665 -5 665 7 0 3 26 5 58 6 54 0 165 11 214 19 13 3 44 7 71 9 26 3
73 10 105 15 31 6 73 13 92 16 19 3 51 10 70 15 19 5 46 11 60 14 14 2 25 5
25 6 0 3 39 10 67 13 16 1 28 5 28 8 0 3 6 6 13 6 6 0 53 13 102 28 50 16 95
30 101 31 11 2 30 10 109 44 17 8 32 14 35 15 17 3 145 73 195 107 73 49 195
172 195 196 0 5 8 24 18 43 15 30 17 76 20 436 3 366 1 402 -13 397 -9 -4 -44
-25 -78 -48 -34 -23 -103 -62 -152 -86 -50 -25 -93 -49 -96 -53 -3 -5 -9 -8
-13 -8 -8 1 -31 -7 -96 -32 -30 -12 -59 -22 -65 -23 -5 -1 -40 -12 -78 -24
-37 -12 -75 -23 -85 -25 -9 -2 -17 -4 -17 -5 0 -2 -28 -9 -60 -15 -11 -2 -49
-11 -85 -20 -74 -18 -205 -44 -259 -51 -20 -2 -43 -6 -51 -9 -24 -6 -141 -18
-187 -19 -24 -1 -43 -4 -43 -7 0 -3 -24 -7 -52 -8 -29 -2 -71 -5 -93 -6 -167
-12 -325 -17 -470 -16 -152 2 -310 7 -310 11 0 2 -166 12 -190 11 -10 0 -25 5
-32 11 -9 7 -13 7 -13 -1 0 -7 -4 -10 -8 -7 -8 5 -64 13 -147 21 -69 8 -239
37 -345 61 -14 3 -36 7 -50 10 -14 3 -32 7 -40 9 -8 2 -15 4 -15 5 0 1 -13 4
-30 6 -16 3 -37 7 -45 11 -8 3 -17 7 -20 7 -41 9 -107 31 -114 37 -6 5 -18 9
-28 9 -52 0 -426 171 -458 210 -9 10 -68 50 -75 50 -3 0 -5 -181 -3 -402z"/>
</g>
</svg>
